<svg xmlns="http://www.w3.org/2000/svg" width="1200" height="630" viewBox="0 0 1200 630">
  <rect width="1200" height="630" fill="#2563eb"/>
  <g transform="translate(350, 115) scale(15)">
    <path d="m7.5 4.27 9 5.15" stroke="white" stroke-width="2" stroke-linecap="round" stroke-linejoin="round" fill="none"></path>
    <path d="M21 8a2 2 0 0 0-1-1.73l-7-4a2 2 0 0 0-2 0l-7 4A2 2 0 0 0 3 8v8a2 2 0 0 0 1 1.73l7 4a2 2 0 0 0 2 0l7-4A2 2 0 0 0 21 16Z" stroke="white" stroke-width="2" stroke-linecap="round" stroke-linejoin="round" fill="none"></path>
    <path d="m3.3 7 8.7 5 8.7-5" stroke="white" stroke-width="2" stroke-linecap="round" stroke-linejoin="round" fill="none"></path>
    <path d="M12 22V12" stroke="white" stroke-width="2" stroke-linecap="round" stroke-linejoin="round" fill="none"></path>
  </g>
</svg>
